<?xml version="1.0" encoding="utf-8"?>
<!-- Generator: Adobe Illustrator 17.1.0, SVG Export Plug-In . SVG Version: 6.00 Build 0)  -->
<!DOCTYPE svg PUBLIC "-//W3C//DTD SVG 1.1//EN" "http://www.w3.org/Graphics/SVG/1.1/DTD/svg11.dtd">
<svg version="1.1" id="Layer_1" xmlns="http://www.w3.org/2000/svg" xmlns:xlink="http://www.w3.org/1999/xlink" x="0px" y="0px"
	 viewBox="104.6 188.1 767.6 121.1" enable-background="new 104.6 188.1 767.6 121.1" xml:space="preserve">
<path display="none" fill="#1D4D82" d="M209.9,446.4H-8.7V227.8h218.6L209.9,446.4L209.9,446.4z M104.6,276.7H91L61,396.4h13.6
	L104.6,276.7z M143.6,276.7H130l-30,119.7h13.6L143.6,276.7z"/>
<g>
	<g>
		<g>
			<path fill="#FFFFFF" d="M383.3,292.1v-93.6h10.1v93.6H383.3z"/>
			<path fill="#FFFFFF" d="M433.2,293.2c-16.4,0-27.2-12.5-27.2-27.9s10.8-27.9,27.2-27.9s27.1,12.5,27.1,27.9
				S449.6,293.2,433.2,293.2z M433.2,245.6c-10.3,0-17.2,7.9-17.2,19.7c0,11.7,6.9,19.7,17.2,19.7c10.2,0,17.1-7.9,17.1-19.7
				C450.4,253.6,443.4,245.6,433.2,245.6z"/>
			<path fill="#FFFFFF" d="M499.5,293.2c-17,0-28.9-12.1-28.9-27.5s12-28.1,28.9-28.1c6.6,0,13.4,2.4,18.3,5.5l-4,7.7
				c-4.4-2.6-9.6-4.5-15.1-4.5c-10.4,0-18.4,7.1-18.4,19.3c0,11.6,9.1,18.9,19,18.9c5.5,0,10.7-1.9,15.1-4.5l3.4,7.7
				C512.9,290.7,506.2,293.2,499.5,293.2z"/>
			<path fill="#FFFFFF" d="M560.2,292.1v-5.6c-4.4,4.3-10,6.6-16.6,6.6c-10.6,0-19.3-6.3-19.3-17.2c0-9.7,8.3-16.7,19.2-16.7
				c7.4,0,11.6,1.7,16.2,3.6v-3.2c0-9-4.3-13.3-14-13.3c-5.1,0-10.3,1.2-14,2.7l-1.7-8.7c5-1.5,11.6-2.8,17-2.8
				c15.3,0,22.5,7.2,22.5,22.8v31.9C569.4,292.1,560.2,292.1,560.2,292.1z M559.6,271.2c-5.3-3-8.7-4.4-14.6-4.4
				c-6.9,0-11.4,3.1-11.4,9c0,5.8,4.5,9.1,12.3,9.1c5.6,0,10.2-2.8,13.5-6.6v-7.2H559.6z"/>
			<path fill="#FFFFFF" d="M583.2,292.1v-93.6h10.1v93.6H583.2z"/>
		</g>
		<g>
			<path fill="#FFFFFF" d="M113.7,309.2h-9L135,188.1h8.9L113.7,309.2z"/>
		</g>
		<g>
			<path fill="#FFFFFF" d="M338.3,309.2h-9l30.5-121.1h8.9L338.3,309.2z"/>
		</g>
		<g>
			<path fill="#FFFFFF" d="M191.3,292.1v-5.5c-4.3,4.4-10.3,6.5-17.1,6.5c-15.4,0-26.2-11.3-26.2-27.3c0-15.7,12.2-28.3,26.4-28.3
				c7,0,12.2,2,16.4,5.3v-44.2h10.1v93.6H191.3z M190.8,253.2c-3.3-4-8.7-7.2-15.5-7.2c-10.1,0-17.2,8.2-17.2,19.7
				c0,10.7,6.6,19.1,17.9,19.1c6.5,0,11.4-2.8,14.9-7V253.2z"/>
			<path fill="#FFFFFF" d="M262.3,268.4h-39.3c1.2,9.1,6.3,16.1,20,16.1c4.5,0,9.8-1.3,14.8-3l1.8,8.5c-6.2,1.8-12.5,3.1-17.4,3.1
				c-19.2,0-28.9-12.1-28.9-27.5c0-14.7,9.5-28.1,26-28.1c15.2,0,23.5,11.3,23.5,25.7C262.6,265.1,262.6,266.5,262.3,268.4z
				 M253.3,260.7c-0.6-8.3-5.3-14.8-14.8-14.8c-8.7,0-14,5.6-15.2,14.8H253.3z"/>
			<path fill="#FFFFFF" d="M295.1,293.5h-1.7l-26.2-55h11.3l16.2,37.5l16.2-37.5h10.8L295.1,293.5z"/>
		</g>
	</g>
	<g>
		<path fill="#FFFFFF" d="M698.2,264.7c0,18.8-9.8,29-24.8,29c-9.3,0-16.1-3.3-21.2-7.4l2.4-3.2c4.5,3.9,10.6,6.8,18.8,6.8
			c12,0,20.7-8.6,20.7-25.2v-64.9h4.2V264.7z"/>
		<path fill="#FFFFFF" d="M739.3,293.1c-14.7,0-25.3-11.8-25.3-27.1s10.8-27.2,25.6-27.2c14.7,0,25.5,11.7,25.5,27
			S754,293.1,739.3,293.1z M739.4,242.5c-12.7,0-21.3,10.3-21.3,23.4c0,13.2,8.4,23.6,21.3,23.6c12.7,0,21.4-10.5,21.4-23.6
			C760.8,252.7,752.3,242.5,739.4,242.5z"/>
		<path fill="#FFFFFF" d="M802.4,293.1c-8.2,0-14.9-3.8-19-8.2v7.2h-4v-92.4h4v47.4c4.3-4.4,11-8.3,19.3-8.3
			c14.5,0,25.5,11.6,25.5,27.1S817,293.1,802.4,293.1z M802.5,242.5c-7.9,0-14.9,4.2-19.2,9.6v28.1c4.3,5.3,11.2,9.3,19.2,9.3
			c12.2,0,21.4-9.7,21.4-23.6C824,252.2,814.8,242.5,802.5,242.5z"/>
		<path fill="#FFFFFF" d="M856,293.1c-6.7,0-12.6-2.5-17.9-6.2l1.9-3c4.8,3.3,10,5.8,16,5.8c7.6,0,12.5-4.5,12.5-10.5
			c0-14.9-27.5-9.6-27.5-27.1c0-6.8,5.8-13.4,15.8-13.4c5.5,0,10.5,1.8,15.1,5l-1.9,3.2c-4.5-3.3-8.4-4.8-13.2-4.8
			c-7.9,0-12,4.7-12,9.6c0,15,27.5,9.3,27.5,26.8C872.2,286.3,865.9,293.1,856,293.1z"/>
	</g>
	<g>
		<path fill="#FFFFFF" d="M620,309.2h-9l30.5-121.1h8.9L620,309.2z"/>
	</g>
</g>
</svg>
